#!OML:ASF H:\Not Pregnant\Project 1\Capture day 1\Session 1\non-pregnant.ASF
:FULLY-SPECIFIED
:DEGREES
340
root -5.19736 16.2156 3.1962 -173.721 -1.56616 -172.84
lowerback 4.66619 2.79518 9.11896
upperback -5.26756 4.32863 0.426743
thorax -7.57177 1.51976 -5.09112
lowerneck 24.6193 -6.95088 -31.71
upperneck -11.2156 -20.4316 43.1764
head 1.49725 -14.21 23.7448
rclavicle 1.00635e-015 -1.25234e-014
rhumerus -38.0827 -9.78652 -79.3438
rradius 27.3778
rwrist 21.3786
rhand -9.53873 -0.978816
rfingers 7.12502
rthumb 16.4278 -30.3032
lclavicle 1.00635e-015 -1.25234e-014
lhumerus -46.9082 1.9469 80.9977
lradius 35.8073
lwrist 39.2242
lhand -15.2682 -11.1167
lfingers 7.12502
lthumb 10.9061 18.5801
rfemur -12.1032 -1.93034 32.9569
rtibia 31.0085
rfoot -19.8319 13.2544
rtoes -9.04517
lfemur -43.0486 6.61616 -15.795
ltibia 60.5312
lfoot -16.1768 8.24353
ltoes -29.1112
341
root -5.19058 16.2062 3.28759 -173.827 -1.62653 -172.951
lowerback 4.54191 2.77937 8.91842
upperback -5.25744 4.27693 0.403418
thorax -7.50519 1.51027 -4.99203
lowerneck 24.6252 -6.95543 -31.675
upperneck -11.1679 -20.4434 43.1463
head 1.5023 -14.2148 23.7082
rclavicle -3.12216e-014 -1.33186e-014
rhumerus -38.2133 -9.87142 -79.2684
rradius 27.3133
rwrist 21.4025
rhand -9.58554 -0.999514
rfingers 7.12502
rthumb 16.3827 -30.3276
lclavicle -3.12216e-014 -1.33186e-014
lhumerus -46.8951 1.74801 81.3569
lradius 35.7904
lwrist 39.0979
lhand -14.998 -11.1224
lfingers 7.12502
lthumb 11.1667 18.5605
rfemur -12.5301 -1.85412 32.9065
rtibia 31.3774
rfoot -19.9637 12.9602
rtoes -8.79491
lfemur -42.6388 6.62342 -15.7435
ltibia 62.5795
lfoot -16.2472 7.83172
ltoes -29.2139
342
root -5.18456 16.1985 3.37797 -173.929 -1.6682 -173.061
lowerback 4.41889 2.7681 8.7241
upperback -5.25433 4.23224 0.377717
thorax -7.44524 1.50279 -4.89987
lowerneck 24.6307 -6.95392 -31.642
upperneck -11.1041 -20.4497 43.1094
head 1.50795 -14.216 23.6692
rclavicle -3.12216e-014 1.59028e-015
rhumerus -38.361 -9.9402 -79.2023
rradius 27.2594
rwrist 21.4186
rhand -9.60048 -1.03952
rfingers 7.12502
rthumb 16.3683 -30.3688
lclavicle -3.12216e-014 1.59028e-015
lhumerus -46.8921 1.54909 81.7082
lradius 35.7547
lwrist 38.9419
lhand -14.75 -11.1225
lfingers 7.12502
lthumb 11.4058 18.5473
rfemur -12.9347 -1.77783 32.8509
rtibia 31.7036
rfoot -20.0656 12.6918
rtoes -8.53367
lfemur -42.1475 6.63825 -15.6826
ltibia 64.5433
lfoot -16.2276 7.38839
ltoes -29.3405
343
root -5.17907 16.1927 3.46779 -174.021 -1.70085 -173.161
lowerback 4.29486 2.76091 8.54873
upperback -5.25287 4.19461 0.349456
thorax -7.38413 1.49735 -4.82158
lowerneck 24.6127 -6.96111 -31.6071
upperneck -11.028 -20.4633 43.0693
head 1.5239 -14.2186 23.6195
rclavicle -2.03754e-015 -1.49089e-014
rhumerus -38.5018 -10.0162 -79.1419
rradius 27.2011
rwrist 21.4401
rhand -9.58743 -1.09476
rfingers 7.12502
rthumb 16.3809 -30.423
lclavicle -2.03754e-015 -1.49089e-014
lhumerus -46.8714 1.35066 82.0492
lradius 35.68
lwrist 38.7536
lhand -14.5251 -11.1288
lfingers 7.12502
lthumb 11.6227 18.5289
rfemur -13.3229 -1.70696 32.8019
rtibia 31.9799
rfoot -20.1255 12.4511
rtoes -8.26741
lfemur -41.5818 6.66026 -15.6034
ltibia 66.4102
lfoot -16.0636 6.90955
ltoes -29.3832
344
root -5.17413 16.1895 3.55721 -174.109 -1.71839 -173.245
lowerback 4.17627 2.75761 8.39617
upperback -5.25421 4.1648 0.322261
thorax -7.32687 1.49387 -4.75592
lowerneck 24.5809 -6.97096 -31.5717
upperneck -10.9373 -20.4779 43.0219
head 1.54528 -14.2194 23.5608
rclavicle 6.72016e-014 3.47873e-014
rhumerus -38.6444 -10.0953 -79.0866
rradius 27.1407
rwrist 21.4704
rhand -9.54788 -1.15182
rfingers 7.12502
rthumb 16.419 -30.4769
lclavicle 6.72016e-014 3.47873e-014
lhumerus -46.8486 1.14522 82.3873
lradius 35.5921
lwrist 38.5649
lhand -14.3457 -11.1046
lfingers 7.12502
lthumb 11.7957 18.5432
rfemur -13.6877 -1.63216 32.7652
rtibia 32.2004
rfoot -20.1259 12.2402
rtoes -7.99714
lfemur -40.932 6.69897 -15.5001
ltibia 68.1638
lfoot -15.7269 6.3966
ltoes -29.3622
345
root -5.16956 16.1891 3.6471 -174.187 -1.7371 -173.311
lowerback 4.05311 2.7521 8.26813
upperback -5.26004 4.1335 0.300397
thorax -7.27102 1.48771 -4.69796
lowerneck 24.5528 -6.97686 -31.5449
upperneck -10.8415 -20.4897 42.9697
head 1.56631 -14.2177 23.5027
rclavicle 3.85518e-014 1.72943e-014
rhumerus -38.7817 -10.1899 -79.0235
rradius 27.0583
rwrist 21.5514
rhand -9.51557 -1.16524
rfingers 7.12502
rthumb 16.4501 -30.4878
lclavicle 3.85518e-014 1.72943e-014
lhumerus -46.8157 0.938755 82.7268
lradius 35.4836
lwrist 38.3885
lhand -14.1964 -11.0774
lfingers 7.12502
lthumb 11.9397 18.5621
rfemur -14.0389 -1.56922 32.7436
rtibia 32.3609
rfoot -20.0612 12.0665
rtoes -7.74261
lfemur -40.2098 6.7416 -15.3707
ltibia 69.7905
lfoot -15.1714 5.83865
ltoes -29.2213
346
root -5.16553 16.192 3.73733 -174.255 -1.75172 -173.364
lowerback 3.93083 2.74461 8.15925
upperback -5.27531 4.10109 0.2835
thorax -7.22531 1.47871 -4.64565
lowerneck 24.5356 -6.97404 -31.5294
upperneck -10.7374 -20.4955 42.9108
head 1.585 -14.2125 23.4473
rclavicle -2.16303e-014 -2.14687e-014
rhumerus -38.9188 -10.2856 -78.9561
rradius 26.9527
rwrist 21.6731
rhand -9.4885 -1.15084
rfingers 7.12502
rthumb 16.4762 -30.4712
lclavicle -2.16303e-014 -2.14687e-014
lhumerus -46.7868 0.738163 83.0653
lradius 35.3592
lwrist 38.2201
lhand -14.076 -11.0455
lfingers 7.12502
lthumb 12.0559 18.5872
rfemur -14.373 -1.516 32.7286
rtibia 32.4563
rfoot -19.9275 11.9416
rtoes -7.49788
lfemur -39.4106 6.78925 -15.2211
ltibia 71.2734
lfoot -14.3684 5.24237
ltoes -28.9657
347
root -5.16162 16.1978 3.82848 -174.309 -1.76196 -173.391
lowerback 3.80432 2.73393 8.07685
upperback -5.29432 4.06598 0.277932
thorax -7.18085 1.46651 -4.59573
lowerneck 24.5223 -6.96682 -31.5252
upperneck -10.6365 -20.4968 42.8495
head 1.60129 -14.2042 23.3958
rclavicle 1.85491e-014 2.42517e-014
rhumerus -39.0366 -10.3857 -78.8852
rradius 26.8164
rwrist 21.8456
rhand -9.50157 -1.08534
rfingers 7.12502
rthumb 16.4636 -30.4068
lclavicle 1.85491e-014 2.42517e-014
lhumerus -46.7389 0.554242 83.3994
lradius 35.2007
lwrist 38.0539
lhand -13.9721 -11.0289
lfingers 7.12502
lthumb 12.156 18.598
rfemur -14.6965 -1.45902 32.7372
rtibia 32.4852
rfoot -19.7249 11.8494
rtoes -7.29817
lfemur -38.5513 6.84544 -15.0337
ltibia 72.6046
lfoot -13.3016 4.58335
ltoes -28.5292
348
root -5.15832 16.2066 3.91958 -174.358 -1.76025 -173.4
lowerback 3.68748 2.72236 8.01715
upperback -5.31936 4.03236 0.278546
thorax -7.14751 1.45282 -4.55283
lowerneck 24.5104 -6.95205 -31.5321
upperneck -10.5327 -20.4915 42.7878
head 1.61656 -14.1924 23.3501
rclavicle -4.17448e-014 -5.56597e-015
rhumerus -39.1517 -10.4754 -78.818
rradius 26.672
rwrist 22.0302
rhand -9.52552 -1.0234
rfingers 7.12502
rthumb 16.4405 -30.3467
lclavicle -4.17448e-014 -5.56597e-015
lhumerus -46.6608 0.509403 83.5962
lradius 34.9083
lwrist 37.3718
lhand -13.4869 -11.0345
lfingers 7.12502
lthumb 12.6238 18.564
rfemur -14.9962 -1.39575 32.7553
rtibia 32.4487
rfoot -19.4655 11.7945
rtoes -7.15235
lfemur -37.6176 6.90619 -14.8193
ltibia 73.7711
lfoot -11.9802 3.84864
ltoes -27.8963
349
root -5.15564 16.2181 4.01094 -174.393 -1.74767 -173.4
lowerback 3.56744 2.71096 7.97526
upperback -5.34228 3.99985 0.280414
thorax -7.10894 1.43893 -4.5184
lowerneck 24.4785 -6.94263 -31.5439
upperneck -10.4305 -20.4886 42.7282
head 1.63763 -14.1803 23.3025
rclavicle 2.14439e-014 2.90226e-014
rhumerus -39.2326 -10.5753 -78.7537
rradius 26.504
rwrist 22.235
rhand -9.56243 -0.95444
rfingers 7.12502
rthumb 16.405 -30.2807
lclavicle 2.14439e-014 2.90226e-014
lhumerus -46.5607 0.444046 83.8193
lradius 34.628
lwrist 36.8278
lhand -13.1423 -11.0109
lfingers 7.12502
lthumb 12.9561 18.5669
rfemur -15.2854 -1.33065 32.7738
rtibia 32.3559
rfoot -19.159 11.7803
rtoes -7.04838
lfemur -36.6282 6.9663 -14.5896
ltibia 74.7681
lfoot -10.4076 3.01853
ltoes -26.9957
350
root -5.15394 16.2315 4.1018 -174.42 -1.7138 -173.399
lowerback 3.45041 2.70114 7.94183
upperback -5.37087 3.97016 0.283849
thorax -7.07749 1.4252 -4.48764
lowerneck 24.443 -6.92478 -31.5679
upperneck -10.3165 -20.4786 42.6657
head 1.66036 -14.1638 23.2583
rclavicle -1.6027e-014 -1.15295e-014
rhumerus -39.3101 -10.6664 -78.6922
rradius 26.3371
rwrist 22.4319
rhand -9.56581 -0.932365
rfingers 7.12502
rthumb 16.4017 -30.2589
lclavicle -1.6027e-014 -1.15295e-014
lhumerus -46.4702 0.39318 84.037
lradius 34.3301
lwrist 36.3031
lhand -12.811 -11.0402
lfingers 7.12502
lthumb 13.2753 18.517
rfemur -15.5619 -1.25677 32.7826
rtibia 32.222
rfoot -18.8165 11.8056
rtoes -6.97356
lfemur -35.5764 7.02978 -14.3578
ltibia 75.5906
lfoot -8.62574 2.08935
ltoes -25.9815
351
root -5.15308 16.2459 4.19223 -174.44 -1.66302 -173.402
lowerback 3.34145 2.69297 7.91302
upperback -5.39994 3.94381 0.2843
thorax -7.05036 1.41256 -4.46343
lowerneck 24.377 -6.91344 -31.5956
upperneck -10.1871 -20.4736 42.6006
head 1.69533 -14.1472 23.2055
rclavicle -8.24956e-015 -9.54166e-015
rhumerus -39.373 -10.7684 -78.6312
rradius 26.1733
rwrist 22.6347
rhand -9.51416 -0.950686
rfingers 7.12502
rthumb 16.4515 -30.2731
lclavicle -8.24956e-015 -9.54166e-015
lhumerus -46.391 0.288767 84.3059
lradius 34.0776
lwrist 36.007
lhand -12.6603 -11.0884
lfingers 7.12502
lthumb 13.4207 18.4593
rfemur -15.8348 -1.17343 32.7792
rtibia 32.0688
rfoot -18.4522 11.8552
rtoes -6.93036
lfemur -34.4652 7.09153 -14.1307
ltibia 76.2418
lfoot -6.64573 1.05288
ltoes -24.8481
352
root -5.15334 16.2605 4.28189 -174.452 -1.59824 -173.422
lowerback 3.22764 2.68427 7.87761
upperback -5.42977 3.91556 0.277821
thorax -7.0213 1.39925 -4.44255
lowerneck 24.2886 -6.90292 -31.6258
upperneck -10.0385 -20.4677 42.5301
head 1.73848 -14.1278 23.1457
rclavicle -1.88597e-014 3.97569e-016
rhumerus -39.4281 -10.8602 -78.5824
rradius 26.0213
rwrist 22.8075
rhand -9.43437 -0.995249
rfingers 7.12502
rthumb 16.5283 -30.3113
lclavicle -1.88597e-014 3.97569e-016
lhumerus -46.3296 0.122067 84.6372
lradius 33.882
lwrist 36.015
lhand -12.7485 -11.1466
lfingers 7.12502
lthumb 13.3356 18.4067
rfemur -16.1145 -1.09437 32.7489
rtibia 31.9176
rfoot -18.0803 11.9361
rtoes -6.88425
lfemur -33.2979 7.14197 -13.9286
ltibia 76.7191
lfoot -4.51482 -0.0903064
ltoes -23.7143
353
root -5.15428 16.2747 4.37174 -174.451 -1.52563 -173.463
lowerback 3.10806 2.6729 7.82651
upperback -5.46082 3.88197 0.265637
thorax -6.99131 1.38402 -4.41836
lowerneck 24.1892 -6.89132 -31.6589
upperneck -9.8836 -20.4593 42.4584
head 1.78445 -14.1064 23.085
rclavicle 2.28602e-014 7.15625e-015
rhumerus -39.4692 -10.9589 -78.5335
rradius 25.8713
rwrist 23.0009
rhand -9.31717 -1.03662
rfingers 7.12502
rthumb 16.6411 -30.3432
lclavicle 2.28602e-014 7.15625e-015
lhumerus -46.2779 -0.093925 85.0146
lradius 33.7417
lwrist 36.2362
lhand -13.0062 -11.1762
lfingers 7.12502
lthumb 13.0873 18.3932
rfemur -16.4177 -1.01826 32.6924
rtibia 31.7861
rfoot -17.7094 12.0326
rtoes -6.85382
lfemur -32.0911 7.17506 -13.7561
ltibia 77.0243
lfoot -2.27519 -1.349
ltoes -22.5946
